<svg width="1198" height="1888" viewBox="0 0 1198 1888" fill="none" xmlns="http://www.w3.org/2000/svg">
<path d="M592.973 1678.9C1106.47 1649.4 1313.47 1404.9 1133.97 1332.9L1082.97 1472.9L571.473 1628.4C473.973 1604.56 309.173 1577.7 429.973 1660.9C580.973 1764.9 587.973 1739.9 601.973 1734.4C613.173 1730 600.639 1695.56 592.973 1678.9Z" fill="#E8DFE2"/>
<path d="M995.473 946.398C1121.47 900.398 1023.47 830.898 977.973 819.398L931.473 898.898H698.473L577.973 928.398L447.973 1238.4C460.473 1309.73 492.773 1412.7 521.973 1253.9C551.173 1095.1 641.139 995.732 682.473 965.898C784.473 891.398 853.473 985.398 995.473 946.398Z" fill="#E8DFE2"/>
<path d="M1074.47 765.898C1205.97 643.898 949.973 412.398 849.973 407.898V427.398L976.973 508.398L1036.97 654.398L1026.97 728.398L918.473 786.898C904.806 803.065 897.373 832.098 976.973 818.898C1056.57 805.698 1075.14 778.065 1074.47 765.898Z" fill="#E8DFE2"/>
<path d="M817.973 395.899C733.473 104.898 606.473 26.5662 554.473 27.3996L565.973 44.3983L613.473 85.3983L682.473 184.398L737.473 288.398L756.973 381.398L817.973 395.899Z" fill="#E8DFE2"/>
<path d="M789.821 1390.7C780.121 1403.39 769.006 1400.54 760.321 1387.7C678.821 1267.2 518.973 1218.4 490.473 1213.9C490.473 1213.9 487.039 1235.57 487.821 1244.7L651.321 1457.7L1009.32 1418.2L1112.32 1319.2C1091.47 1289.4 911.321 1231.7 789.821 1390.7Z" fill="#02137B"/>
<path d="M484.97 0.398315C520.57 -2.80169 535.137 14.065 537.97 22.8983L502.973 48.3983V122.898L574.97 197.398L655.973 331.898L664.473 403.398L695.473 509.398L537.97 733.398L166.473 1028.9L193.973 1479.9C-285.527 1000.4 236.472 634.898 550.972 569.398C502.972 480.598 547.137 411.898 574.97 390.398C474.57 340.398 415.972 273.398 391.472 246.398C366.972 219.398 301.972 121.399 348.472 78.3983C375.972 52.9676 433.806 81.065 446.473 96.3983C444.639 65.565 449.37 3.59831 484.97 0.398315Z" fill="#02137B"/>
<path d="M556.473 1652.9C556.473 1652.9 593.473 1725.59 543.473 1716.9C493.473 1708.2 178.115 1535.9 82.473 1323.9C-35.8388 1061.64 82.473 722.398 591.473 591.898C591.473 591.898 552.317 521.398 573.473 465.398C594.629 409.398 645.973 385.898 645.973 385.898C645.973 385.898 671.973 321.898 548.058 207.898C448.973 119.398 371.973 119.398 371.973 119.398C371.973 119.398 378.877 93.1675 398.473 88.3983C429.473 80.8535 463.803 98.3894 481.473 108.898C474.973 -117.102 722.973 108.898 778.473 378.898C854.973 396.898 939.973 439.898 989.473 498.398C1145.97 669.398 1036.47 750.398 1036.47 750.398C1036.47 750.398 1043.97 783.398 946.473 800.398C1078.47 849.898 1041.97 986.898 754.973 916.398C631.973 894.398 495.473 1098.77 495.473 1233.9C495.473 1243.4 630.205 1258.4 730.973 1406.9C761.373 1451.7 807.306 1425.56 826.473 1406.9C1036.97 1157.9 1423.97 1406.9 903.973 1589.4C786.973 1638.9 656.973 1649.9 556.473 1652.9Z" fill="#03B9F4"/>
<path d="M522.473 83.8987C506.473 -39.1016 705.973 216.398 737.473 371.899H676.473C703.673 293.499 585.139 178.565 522.473 130.898C528.873 116.898 525.139 93.7319 522.473 83.8987Z" fill="#02137B"/>
<path d="M912.973 589.398C974.973 530.898 861.973 475.898 838.473 486.398C814.973 496.898 818.892 517.898 838.473 522.398C918.973 540.899 879.973 572.398 889.473 583.898C897.073 593.098 909.473 592.701 912.973 589.398Z" fill="#02137B"/>
<path d="M999.473 673.399C1013.47 662.599 1020.73 699.399 1014.47 707.399C1010.96 711.898 982.773 708.599 977.973 701.399C971.973 692.399 981.973 686.899 999.473 673.399Z" fill="#02137B"/>
<path d="M424.973 1753.9C421.973 1831.4 357.487 1887.4 275.473 1887.4C193.458 1887.4 132.064 1815.69 129.564 1752.19C126.279 1668.75 212.564 1607.69 284.064 1616.19C359.564 1623.69 427.91 1678.02 424.973 1753.9Z" fill="#E8DFE2"/>
<path d="M389.473 1719.9C389.473 1812.4 298.473 1811.9 232.973 1853.4C188.973 1876.4 67.9726 1763.4 64.973 1698.4C61.1236 1614.99 141.472 1554.9 212.972 1560.9C290.972 1562.4 389.473 1643.96 389.473 1719.9Z" fill="#02137B"/>
<path d="M394.473 1726.9C391.473 1804.4 328.987 1861.9 246.973 1861.9C164.958 1861.9 99.4724 1787.9 96.9724 1724.4C93.6875 1640.96 179.973 1579.9 251.473 1588.4C326.973 1595.9 397.41 1651.02 394.473 1726.9Z" fill="#03B9F4"/>
</svg>